<?xml version="1.0" standalone="no"?>
<!DOCTYPE svg PUBLIC "-//W3C//DTD SVG 20010904//EN"
 "http://www.w3.org/TR/2001/REC-SVG-20010904/DTD/svg10.dtd">
<svg version="1.0" xmlns="http://www.w3.org/2000/svg"
 width="372.000000pt" height="372.000000pt" viewBox="0 0 372.000000 372.000000"
 preserveAspectRatio="xMidYMid meet">
<metadata>
Created by potrace 1.16, written by Peter Selinger 2001-2019
</metadata>
<g transform="translate(0.000000,372.000000) scale(0.100000,-0.100000)"
fill="#000000" stroke="none">
<path d="M1626 3193 c-10 -10 5 -23 25 -23 35 0 76 -28 93 -64 10 -22 16 -60
16 -110 l0 -76 -35 0 -35 0 0 -54 c0 -45 -4 -58 -22 -70 -30 -21 -44 -20 -68
4 -15 15 -20 33 -20 75 l0 55 -115 0 -115 0 0 73 c0 59 -4 77 -18 90 -22 20
-41 21 -65 3 -16 -12 -17 -30 -15 -167 l3 -154 27 -9 c34 -12 68 14 68 53 1
25 1 25 15 7 8 -10 12 -23 9 -27 -3 -5 0 -9 5 -9 19 0 12 -27 -15 -59 -21 -25
-33 -31 -65 -31 -46 0 -85 18 -114 52 -15 17 -21 43 -25 98 l-5 75 -37 3 c-20
2 -54 -1 -75 -7 -21 -6 -42 -11 -48 -12 -20 -3 -85 -61 -107 -97 l-23 -37 0
-845 c0 -811 1 -847 19 -875 30 -48 68 -86 108 -106 36 -18 70 -19 855 -19
744 0 821 1 843 17 46 30 92 78 111 115 18 36 19 69 19 862 0 766 -1 827 -18
862 -25 56 -53 95 -63 88 -5 -3 -9 0 -9 5 0 19 -73 42 -146 48 l-72 6 -3 -83
c-4 -80 -5 -83 -41 -116 -47 -43 -110 -48 -149 -11 -22 20 -25 30 -20 80 1 20
21 23 21 3 0 -22 29 -46 56 -46 36 0 44 33 44 178 0 136 -11 172 -50 172 -39
0 -60 -38 -60 -112 l0 -67 -102 -3 -103 -3 -5 -63 c-6 -80 -30 -100 -78 -66
-21 15 -22 21 -22 169 0 153 0 155 25 171 16 11 34 14 55 9 35 -8 39 4 10 30
-29 26 -94 27 -133 1 -38 -26 -45 -48 -46 -158 l-1 -88 -70 0 -70 0 0 98 c0
104 -9 130 -53 153 -24 13 -82 20 -91 12z m1084 -1234 c-1 -661 -1 -672 -21
-701 -43 -60 -20 -58 -849 -58 -845 0 -808 -3 -848 68 l-22 40 0 654 c0 360 3
658 7 661 3 4 395 7 870 7 l863 0 0 -671z m-1670 -803 c26 -15 95 -17 800 -18
l770 -1 40 32 40 32 0 -26 c0 -33 -42 -73 -84 -80 -17 -3 -374 -5 -794 -3
l-764 3 -29 33 c-18 20 -29 43 -28 60 0 25 1 26 10 6 6 -11 23 -28 39 -38z
m800 -91 c696 0 768 2 798 17 17 9 32 13 32 9 0 -19 -50 -52 -91 -59 -56 -11
-1477 -8 -1504 3 -23 9 -65 45 -65 56 0 4 15 0 33 -9 29 -15 101 -17 797 -17z"/>
<path d="M1093 2435 c-5 -8 -6 -37 -3 -63 l5 -47 163 -3 162 -2 61 -61 c33
-33 59 -63 57 -67 -2 -4 -14 -25 -28 -47 -14 -22 -25 -42 -26 -45 0 -3 -6 -33
-13 -67 -11 -50 -18 -63 -35 -66 -21 -4 -21 -5 2 -12 13 -4 25 -18 28 -34 12
-55 38 -113 70 -158 l33 -46 -87 -83 c-71 -67 -85 -85 -74 -95 10 -11 23 -3
69 41 31 30 69 69 85 87 l29 32 42 -30 c25 -17 66 -34 102 -40 33 -7 66 -13
73 -15 8 -2 12 -23 12 -59 0 -30 5 -55 10 -55 6 0 10 25 10 55 0 52 1 55 28
60 83 16 119 28 156 53 l41 28 83 -83 c84 -84 95 -92 108 -71 4 7 -27 44 -80
95 l-87 83 31 38 c32 40 70 128 70 162 0 13 10 25 28 32 24 10 25 12 6 15 -16
3 -23 16 -32 66 -13 63 -36 120 -59 145 -7 7 -13 16 -13 19 0 3 28 31 61 62
l62 56 176 5 176 5 3 57 c3 53 1 58 -20 63 -13 3 -158 4 -323 3 -276 -3 -300
-4 -303 -20 -3 -17 17 -18 303 -18 l306 0 -3 -27 -3 -28 -168 -3 -168 -2 -26
-28 c-14 -15 -29 -26 -34 -25 -5 2 -9 -3 -10 -10 0 -6 -13 -22 -29 -35 l-30
-23 -37 28 c-21 15 -40 31 -41 36 -2 4 -8 5 -13 1 -5 -3 -19 2 -31 10 -12 9
-34 16 -48 16 -43 0 -68 11 -73 31 -6 23 -27 26 -27 4 0 -16 -38 -35 -71 -35
-27 0 -106 -36 -147 -67 l-34 -25 -62 61 -62 61 -157 0 -157 0 0 30 0 30 291
0 c271 0 290 1 287 18 -3 16 -27 17 -305 20 -262 2 -303 0 -310 -13z m679
-295 c29 -27 57 -50 61 -50 5 0 31 23 59 50 59 59 86 63 129 21 34 -35 36 -59
9 -94 -16 -20 -20 -40 -20 -100 0 -61 3 -77 20 -92 30 -27 26 -69 -11 -99 -46
-39 -70 -34 -132 30 l-54 55 -57 -55 c-66 -65 -93 -71 -137 -27 -33 34 -37 68
-11 97 28 29 29 167 2 194 -28 28 -25 53 9 89 42 45 70 41 133 -19z"/>
<path d="M1681 2116 c-8 -10 21 -46 133 -159 79 -81 148 -147 154 -147 17 0
24 18 14 35 -12 23 -252 264 -273 275 -11 7 -20 5 -28 -4z"/>
<path d="M1092 2238 c-12 -15 -8 -96 5 -109 15 -15 275 -7 281 9 3 9 -26 12
-122 12 l-126 0 0 30 0 30 126 0 c114 0 125 2 122 18 -3 15 -19 17 -139 20
-102 2 -139 -1 -147 -10z"/>
<path d="M2478 2132 c-69 -2 -88 -6 -88 -17 0 -12 17 -15 86 -15 l85 0 -3 -47
-3 -48 -148 -3 -148 -3 3 -27 3 -27 168 -3 167 -2 0 89 c0 108 1 107 -122 103z"/>
<path d="M1090 1836 c0 -110 3 -146 14 -155 9 -8 56 -11 142 -9 l129 3 3 153
3 152 -52 0 c-57 0 -66 -23 -11 -28 l32 -3 0 -105 0 -104 -110 0 -110 0 0 105
0 104 57 3 c34 2 58 8 61 16 3 9 -17 12 -77 12 l-81 0 0 -144z"/>
<path d="M2470 1699 c-25 -29 -48 -48 -56 -45 -19 7 -27 -11 -27 -58 l0 -41
104 0 104 0 3 98 3 97 -45 0 c-41 0 -47 -4 -86 -51z"/>
<path d="M1454 1482 c-18 -11 -23 -99 -7 -122 13 -18 25 -20 132 -20 78 0 121
4 129 12 19 19 16 124 -4 132 -22 9 -237 7 -250 -2z"/>
<path d="M1963 1483 c-20 -8 -17 -129 3 -137 9 -3 149 -6 313 -6 218 0 300 3
309 12 19 19 16 124 -4 132 -19 7 -603 7 -621 -1z m597 -59 l0 -34 -285 0
-285 0 0 29 c0 16 5 31 10 33 6 2 134 4 285 4 l275 2 0 -34z"/>
<path d="M947 847 c-16 -11 -17 -30 -15 -157 l3 -145 30 0 30 0 5 83 5 84 60
-82 c67 -91 84 -105 109 -87 14 11 16 31 14 157 l-3 145 -25 0 c-25 0 -25 -2
-30 -95 l-5 -94 -50 69 c-27 39 -55 79 -61 89 -18 33 -48 48 -67 33z"/>
<path d="M1447 803 c-4 -3 -7 -16 -7 -29 0 -12 -7 -24 -15 -28 -8 -3 -15 -14
-15 -25 0 -10 7 -21 15 -25 10 -4 15 -20 15 -51 0 -25 7 -59 15 -75 14 -27 21
-30 61 -30 31 0 46 5 50 15 8 20 -12 43 -39 47 -19 3 -22 10 -25 51 -2 35 0
48 10 46 37 -5 49 2 46 24 -2 16 -11 23 -30 25 -24 3 -28 8 -28 33 0 24 -4 29
-23 29 -13 0 -27 -3 -30 -7z"/>
<path d="M1655 752 c-16 -2 -42 -15 -57 -30 -24 -21 -28 -34 -28 -77 0 -43 4
-56 28 -78 22 -21 38 -27 73 -27 57 0 89 21 73 47 -9 14 -22 17 -57 15 -25 -2
-48 1 -52 7 -4 7 11 11 44 11 32 0 55 6 65 16 46 45 -15 125 -89 116z"/>
<path d="M1794 734 c-23 -22 -25 -31 -23 -109 l2 -85 28 0 c28 0 28 0 31 73 3
70 4 72 30 75 31 4 36 -8 40 -93 3 -43 6 -50 25 -53 29 -4 38 28 30 110 -7 76
-26 98 -91 103 -41 3 -52 0 -72 -21z"/>
<path d="M1999 732 c-21 -22 -24 -35 -24 -94 0 -76 7 -86 70 -100 41 -9 95 15
95 41 0 23 -6 25 -61 22 -20 -2 -40 2 -44 8 -4 7 9 11 39 11 66 0 76 7 76 49
0 48 -31 77 -86 84 -34 3 -45 0 -65 -21z"/>
<path d="M2173 753 c-20 -7 -15 -38 8 -59 41 -37 41 -49 4 -94 -28 -33 -33
-45 -24 -56 18 -22 38 -17 69 18 l29 32 31 -33 c19 -20 38 -30 47 -27 8 3 17
6 19 6 14 0 -1 37 -27 70 l-32 39 32 36 c37 42 38 53 9 64 -19 7 -28 3 -50
-22 l-28 -30 -20 25 c-20 26 -46 38 -67 31z"/>
<path d="M2390 750 c-4 -61 -1 -162 5 -179 3 -12 18 -23 33 -27 15 -3 32 -7
39 -9 22 -7 83 16 93 35 5 10 10 54 10 98 0 66 -3 81 -17 86 -28 11 -43 -22
-43 -90 0 -67 -13 -84 -51 -64 -16 9 -19 22 -19 79 0 54 -4 70 -16 75 -23 9
-34 7 -34 -4z"/>
<path d="M2618 732 c-16 -14 -28 -34 -28 -47 0 -32 37 -65 71 -65 52 0 40 -19
-13 -22 -42 -2 -54 -7 -56 -22 -2 -10 2 -22 10 -27 20 -13 121 -10 140 4 23
18 31 57 19 89 -8 22 -17 27 -52 30 -24 2 -44 9 -47 16 -3 10 6 13 34 12 57
-4 64 -2 64 19 0 40 -100 48 -142 13z"/>
<path d="M1250 735 c-7 -8 -15 -13 -19 -11 -4 3 -13 -15 -20 -39 -29 -100 47
-176 138 -139 38 15 61 54 61 103 0 27 -27 81 -41 81 -6 0 -7 5 -4 10 11 17
-101 12 -115 -5z"/>
</g>
</svg>
